<?xml version="1.0" encoding="UTF-8"?>
<svg id="Layer_1" xmlns="http://www.w3.org/2000/svg" version="1.1" xmlns:xlink="http://www.w3.org/1999/xlink" viewBox="0 0 48 48">
  <!-- Generator: Adobe Illustrator 30.2.1, SVG Export Plug-In . SVG Version: 2.1.1 Build 1)  -->
  <defs>
    <style>
      .st0, .st1 {
        fill: #daceaa;
      }

      .st0, .st2, .st3, .st4, .st5, .st6, .st7 {
        fill-rule: evenodd;
      }

      .st2, .st8 {
        fill: #f18379;
      }

      .st9 {
        fill: none;
      }

      .st3, .st10 {
        fill: #7990f1;
      }

      .st4 {
        fill: #98cf94;
      }

      .st5, .st11 {
        fill: #f1ead6;
      }

      .st6, .st12 {
        fill: #5eaf58;
      }

      .st13 {
        display: none;
      }

      .st14 {
        clip-path: url(#clippath);
      }
    </style>
    <clipPath id="clippath">
      <rect class="st9" width="48" height="48"/>
    </clipPath>
  </defs>
  <g id="Layer_2" class="st13">
    <rect width="48" height="48"/>
  </g>
  <g class="st14">
    <rect x="26" y="2.5" width="3" height="1"/>
    <polygon class="st7" points="23 4.5 23 3.5 24 3.5 25 3.5 26 3.5 26 4.5 23 4.5"/>
    <polygon class="st7" points="29 4.5 29 3.5 32 3.5 32 4.5 32 5.5 32 6.5 32 7.5 33 7.5 33 8.5 32 8.5 31 8.5 29 8.5 29 7.5 30 7.5 31 7.5 31 4.5 29 4.5"/>
    <polygon class="st7" points="21 5.5 21 4.5 22 4.5 23 4.5 23 5.5 21 5.5"/>
    <rect x="26" y="4.5" width="3" height="1"/>
    <polygon class="st7" points="18 6.5 18 5.5 19 5.5 20 5.5 21 5.5 21 6.5 18 6.5"/>
    <polygon class="st7" points="23 6.5 23 5.5 26 5.5 26 6.5 25 6.5 24 6.5 23 6.5"/>
    <polygon class="st7" points="15 7.5 15 6.5 16 6.5 17 6.5 18 6.5 18 7.5 15 7.5"/>
    <polygon class="st7" points="21 7.5 21 6.5 23 6.5 23 7.5 22 7.5 21 7.5"/>
    <polygon class="st7" points="33 7.5 33 6.5 36 6.5 36 9.5 36 13.5 38 13.5 38 14.5 37 14.5 36 14.5 35 14.5 35 10.5 35 7.5 33 7.5"/>
    <polygon class="st7" points="12 8.5 12 7.5 13 7.5 14 7.5 15 7.5 15 8.5 12 8.5"/>
    <polygon class="st7" points="18 8.5 18 7.5 21 7.5 21 8.5 20 8.5 19 8.5 18 8.5"/>
    <polygon class="st7" points="12 8.5 12 9.5 11 9.5 10 9.5 10 10.5 10 11.5 10 12.5 10 13.5 10 14.5 10 15.5 10 16.5 9 16.5 9 10.5 7 10.5 7 13.5 6 13.5 6 12.5 5 12.5 5 11.5 6 11.5 6 10.5 6 9.5 7 9.5 8 9.5 9 9.5 9 8.5 10 8.5 12 8.5"/>
    <polygon class="st7" points="15 9.5 15 8.5 18 8.5 18 9.5 17 9.5 16 9.5 15 9.5"/>
    <polygon class="st7" points="27 9.5 27 8.5 28 8.5 29 8.5 29 9.5 28 9.5 27 9.5"/>
    <polygon class="st7" points="13 10.5 13 9.5 14 9.5 15 9.5 15 10.5 14 10.5 13 10.5"/>
    <polygon class="st7" points="24 10.5 24 9.5 25 9.5 26 9.5 27 9.5 27 10.5 26 10.5 25 10.5 24 10.5"/>
    <polygon class="st7" points="13 10.5 13 12.5 13 15.5 13 21.5 12 21.5 12 19.5 12 16.5 12 10.5 13 10.5"/>
    <polygon class="st7" points="22 11.5 22 10.5 23 10.5 24 10.5 24 11.5 23 11.5 22 11.5"/>
    <polygon class="st7" points="20 12.5 20 11.5 21 11.5 22 11.5 22 12.5 21 12.5 20 12.5"/>
    <polygon class="st7" points="40 12.5 40 11.5 42 11.5 42 12.5 42 13.5 41 13.5 41 12.5 40 12.5"/>
    <polygon class="st7" points="3 13.5 3 12.5 4 12.5 5 12.5 5 13.5 4 13.5 3 13.5"/>
    <polygon class="st7" points="20 12.5 20 13.5 19 13.5 18 13.5 18 14.5 17 14.5 17 12.5 20 12.5"/>
    <polygon class="st7" points="38 13.5 38 12.5 39 12.5 40 12.5 40 13.5 38 13.5"/>
    <rect x="2" y="13.5" width="1" height="1"/>
    <polygon class="st7" points="7 13.5 8 13.5 8 14.5 8 15.5 8 16.5 7 16.5 7 15.5 7 14.5 7 13.5"/>
    <rect x="40" y="13.5" width="1" height="1"/>
    <rect x="3" y="14.5" width="1" height="1"/>
    <polygon class="st7" points="17 14.5 17 15.5 17 16.5 16 16.5 16 15.5 16 14.5 17 14.5"/>
    <polygon class="st7" points="33 15.5 33 14.5 34 14.5 35 14.5 35 15.5 34 15.5 33 15.5"/>
    <polygon class="st7" points="40 14.5 40 15.5 41 15.5 44 15.5 44 17.5 43 17.5 43 16.5 42 16.5 41 16.5 40 16.5 39 16.5 38 16.5 38 15.5 39 15.5 39 14.5 40 14.5"/>
    <polygon class="st7" points="4 15.5 5 15.5 5 16.5 5 17.5 3 17.5 3 16.5 4 16.5 4 15.5"/>
    <polygon class="st7" points="30 16.5 30 15.5 31 15.5 32 15.5 33 15.5 33 16.5 32 16.5 31 16.5 30 16.5"/>
    <polygon class="st7" points="8 16.5 9 16.5 9 18.5 8 18.5 8 17.5 8 16.5"/>
    <polygon class="st7" points="10 16.5 11 16.5 11 17.5 11 18.5 11 19.5 11 20.5 11 21.5 12 21.5 12 23.5 11 23.5 11 24.5 12 24.5 12 23.5 13 23.5 13 25.5 12 25.5 12 26.5 11 26.5 11 25.5 10 25.5 10 24.5 9 24.5 9 23.5 10 23.5 10 22.5 10 21.5 9 21.5 9 18.5 10 18.5 10 17.5 10 16.5"/>
    <polygon class="st7" points="16 16.5 16 17.5 16 18.5 16 19.5 15 19.5 15 18.5 15 17.5 15 16.5 16 16.5"/>
    <polygon class="st7" points="28 17.5 28 16.5 29 16.5 30 16.5 30 17.5 29 17.5 28 17.5"/>
    <polygon class="st7" points="36 17.5 36 16.5 37 16.5 38 16.5 38 17.5 37 17.5 36 17.5"/>
    <polygon class="st7" points="1 18.5 1 17.5 2 17.5 3 17.5 3 18.5 2 18.5 1 18.5"/>
    <polygon class="st7" points="5 17.5 6 17.5 6 18.5 6 19.5 5 19.5 5 18.5 5 17.5"/>
    <polygon class="st7" points="26 18.5 26 17.5 27 17.5 28 17.5 28 18.5 27 18.5 26 18.5"/>
    <polygon class="st7" points="34 18.5 34 17.5 35 17.5 36 17.5 36 18.5 35 18.5 34 18.5"/>
    <polygon class="st7" points="40 18.5 40 17.5 41 17.5 42 17.5 43 17.5 43 18.5 42 18.5 41 18.5 40 18.5"/>
    <polygon points="0 18.5 0 20.5 1 20.5 2 20.5 2 19.5 1 19.5 1 18.5 0 18.5"/>
    <polygon class="st7" points="24 19.5 24 18.5 25 18.5 26 18.5 26 19.5 25 19.5 24 19.5"/>
    <polygon class="st7" points="32 19.5 32 18.5 33 18.5 34 18.5 34 19.5 33 19.5 32 19.5"/>
    <polygon class="st7" points="38 19.5 38 18.5 39 18.5 40 18.5 40 19.5 39 19.5 38 19.5"/>
    <rect x="6" y="19.5" width="1" height="1"/>
    <polygon class="st7" points="15 19.5 15 20.5 15 21.5 14 21.5 14 20.5 14 19.5 15 19.5"/>
    <rect x="23" y="19.5" width="1" height="1"/>
    <polygon class="st7" points="30 20.5 30 19.5 31 19.5 32 19.5 32 20.5 31 20.5 30 20.5"/>
    <polygon class="st7" points="36 20.5 36 19.5 37 19.5 38 19.5 38 20.5 36 20.5"/>
    <rect x="2" y="20.5" width="1" height="1"/>
    <rect x="7" y="20.5" width="1" height="1"/>
    <polygon class="st7" points="21 21.5 21 20.5 22 20.5 23 20.5 23 21.5 22 21.5 21 21.5"/>
    <polygon class="st7" points="27 21.5 27 20.5 28 20.5 29 20.5 30 20.5 30 21.5 29 21.5 28 21.5 27 21.5"/>
    <polygon class="st7" points="34 21.5 34 20.5 35 20.5 36 20.5 36 21.5 35 21.5 34 21.5"/>
    <polygon class="st7" points="38 20.5 40 20.5 41 20.5 42 20.5 42 21.5 40 21.5 39 21.5 38 21.5 38 20.5"/>
    <rect x="3" y="21.5" width="1" height="1"/>
    <polygon class="st7" points="8 21.5 9 21.5 9 23.5 8 23.5 8 22.5 8 21.5"/>
    <polygon class="st7" points="13 21.5 14 21.5 14 22.5 14 23.5 13 23.5 13 21.5"/>
    <polygon class="st7" points="19 22.5 19 21.5 20 21.5 21 21.5 21 22.5 20 22.5 19 22.5"/>
    <polygon class="st7" points="25 22.5 25 21.5 26 21.5 27 21.5 27 22.5 26 22.5 25 22.5"/>
    <polygon class="st7" points="32 22.5 32 21.5 33 21.5 34 21.5 34 22.5 33 22.5 32 22.5"/>
    <polygon class="st7" points="42 21.5 46 21.5 46 22.5 46 23.5 45 23.5 45 22.5 44 22.5 42 22.5 42 21.5"/>
    <polygon class="st7" points="3 22.5 3 23.5 4 23.5 4 24.5 3 24.5 3 25.5 2 25.5 2 24.5 2 23.5 2 22.5 3 22.5"/>
    <polygon class="st7" points="4 23.5 4 22.5 5 22.5 6 22.5 6 23.5 4 23.5"/>
    <polygon class="st7" points="17 23.5 17 22.5 18 22.5 19 22.5 19 23.5 17 23.5"/>
    <polygon class="st7" points="22 23.5 22 22.5 23 22.5 24 22.5 25 22.5 25 23.5 24 23.5 23 23.5 22 23.5"/>
    <polygon class="st7" points="30 23.5 30 22.5 31 22.5 32 22.5 32 23.5 31 23.5 30 23.5"/>
    <rect x="6" y="23.5" width="1" height="1"/>
    <rect x="16" y="23.5" width="1" height="1"/>
    <rect x="19" y="23.5" width="3" height="1"/>
    <polygon class="st7" points="27 24.5 27 23.5 28 23.5 29 23.5 30 23.5 30 24.5 29 24.5 28 24.5 27 24.5"/>
    <polygon class="st7" points="45 23.5 45 25.5 41 25.5 41 24.5 42 24.5 43 24.5 43 23.5 44 23.5 45 23.5"/>
    <rect x="4" y="24.5" width="2" height="1"/>
    <rect x="7" y="24.5" width="1" height="1"/>
    <polygon class="st7" points="14 25.5 14 24.5 15 24.5 16 24.5 16 25.5 17 25.5 17 26.5 18 26.5 18 27.5 17 27.5 16 27.5 16 28.5 14 28.5 14 27.5 13 27.5 12 27.5 12 26.5 13 26.5 13 25.5 14 25.5 14 26.5 15 26.5 15 25.5 14 25.5"/>
    <polygon class="st7" points="17 25.5 17 24.5 19 24.5 19 25.5 20 25.5 21 25.5 22 25.5 22 26.5 21 26.5 20 26.5 18 26.5 18 25.5 17 25.5"/>
    <polygon class="st7" points="22 25.5 22 24.5 24 24.5 27 24.5 27 25.5 26 25.5 25 25.5 22 25.5"/>
    <rect x="3" y="25.5" width="1" height="2"/>
    <rect x="6" y="25.5" width="1" height="1"/>
    <rect x="8" y="25.5" width="2" height="1"/>
    <polygon class="st7" points="39 26.5 39 25.5 40 25.5 41 25.5 41 26.5 40 26.5 39 26.5"/>
    <polygon class="st7" points="45 25.5 46 25.5 47 25.5 47 26.5 46 26.5 45 26.5 45 25.5"/>
    <rect x="7" y="26.5" width="1" height="1"/>
    <rect x="10" y="26.5" width="1" height="1"/>
    <polygon class="st7" points="37 27.5 37 26.5 38 26.5 39 26.5 39 27.5 38 27.5 37 27.5"/>
    <rect x="47" y="26.5" width="1" height="1"/>
    <polygon class="st7" points="3 27.5 3 28.5 4 28.5 4 29.5 3 29.5 3 30.5 4 30.5 4 31.5 5 31.5 6 31.5 6 32.5 5 32.5 4 32.5 4 33.5 4 34.5 3 34.5 3 33.5 3 32.5 3 31.5 2 31.5 2 30.5 2 29.5 2 28.5 2 27.5 3 27.5"/>
    <polygon class="st7" points="4 28.5 4 27.5 5 27.5 6 27.5 6 28.5 4 28.5"/>
    <polygon class="st7" points="8 27.5 10 27.5 10 28.5 9 28.5 8 28.5 8 27.5"/>
    <rect x="11" y="27.5" width="1" height="1"/>
    <polygon class="st7" points="35 28.5 35 27.5 36 27.5 37 27.5 37 28.5 36 28.5 35 28.5"/>
    <polygon class="st7" points="45 28.5 45 27.5 46 27.5 47 27.5 47 28.5 46 28.5 45 28.5"/>
    <rect x="6" y="28.5" width="1" height="1"/>
    <rect x="10" y="28.5" width="1" height="1"/>
    <rect x="12" y="28.5" width="2" height="1"/>
    <polygon class="st7" points="16 28.5 17 28.5 18 28.5 19 28.5 19 29.5 18 29.5 17 29.5 16 29.5 16 28.5"/>
    <polygon class="st7" points="33 29.5 33 28.5 34 28.5 35 28.5 35 29.5 34 29.5 33 29.5"/>
    <polygon class="st7" points="43 29.5 43 28.5 44 28.5 45 28.5 45 29.5 44 29.5 43 29.5"/>
    <rect x="4" y="29.5" width="2" height="1"/>
    <rect x="7" y="29.5" width="1" height="1"/>
    <rect x="11" y="29.5" width="1" height="1"/>
    <rect x="14" y="29.5" width="1" height="1"/>
    <polygon class="st7" points="19 29.5 20 29.5 21 29.5 21 30.5 20 30.5 19 30.5 19 29.5"/>
    <polygon class="st7" points="31 30.5 31 29.5 32 29.5 33 29.5 33 30.5 32 30.5 31 30.5"/>
    <polygon class="st7" points="41 30.5 41 29.5 42 29.5 43 29.5 43 30.5 42 30.5 41 30.5"/>
    <rect x="6" y="30.5" width="1" height="1"/>
    <polygon class="st7" points="8 31.5 8 30.5 9 30.5 10 30.5 10 31.5 8 31.5"/>
    <polygon class="st7" points="12 30.5 14 30.5 14 31.5 13 31.5 12 31.5 12 30.5"/>
    <rect x="15" y="30.5" width="1" height="1"/>
    <polygon class="st7" points="21 30.5 22 30.5 23 30.5 24 30.5 24 31.5 23 31.5 22 31.5 21 31.5 21 30.5"/>
    <polygon class="st7" points="29 31.5 29 30.5 30 30.5 31 30.5 31 31.5 30 31.5 29 31.5"/>
    <polygon class="st7" points="41 30.5 41 31.5 40 31.5 40 32.5 40 33.5 39 33.5 39 32.5 38 32.5 37 32.5 37 31.5 38 31.5 39 31.5 39 30.5 40 30.5 41 30.5"/>
    <rect x="7" y="31.5" width="1" height="1"/>
    <rect x="10" y="31.5" width="1" height="1"/>
    <rect x="14" y="31.5" width="1" height="1"/>
    <polygon class="st7" points="16 32.5 16 31.5 17 31.5 18 31.5 18 32.5 16 32.5"/>
    <polygon class="st7" points="24 31.5 25 31.5 26 31.5 26 32.5 25 32.5 24 32.5 24 31.5"/>
    <polygon class="st7" points="27 32.5 27 31.5 28 31.5 29 31.5 29 32.5 28 32.5 27 32.5"/>
    <rect x="6" y="32.5" width="1" height="1"/>
    <rect x="8" y="32.5" width="2" height="1"/>
    <rect x="11" y="32.5" width="1" height="1"/>
    <rect x="15" y="32.5" width="1" height="1"/>
    <rect x="18" y="32.5" width="1" height="1"/>
    <rect x="26" y="32.5" width="1" height="1"/>
    <polygon class="st7" points="35 33.5 35 32.5 36 32.5 37 32.5 37 33.5 36 33.5 35 33.5"/>
    <rect x="7" y="33.5" width="1" height="1"/>
    <rect x="10" y="33.5" width="1" height="1"/>
    <polygon class="st7" points="12 34.5 12 33.5 13 33.5 14 33.5 14 34.5 12 34.5"/>
    <polygon class="st7" points="16 33.5 17 33.5 17 34.5 17 35.5 17 36.5 15 36.5 15 35.5 16 35.5 16 34.5 16 33.5"/>
    <rect x="19" y="33.5" width="1" height="1"/>
    <polygon class="st7" points="33 34.5 33 33.5 34 33.5 35 33.5 35 34.5 34 34.5 33 34.5"/>
    <rect x="38" y="33.5" width="1" height="1"/>
    <polygon class="st7" points="3 34.5 3 35.5 4 35.5 4 36.5 2 36.5 2 35.5 2 34.5 3 34.5"/>
    <polygon class="st7" points="4 35.5 4 34.5 5 34.5 6 34.5 6 35.5 4 35.5"/>
    <polygon class="st7" points="8 34.5 10 34.5 10 35.5 9 35.5 8 35.5 8 34.5"/>
    <rect x="11" y="34.5" width="1" height="1"/>
    <rect x="14" y="34.5" width="1" height="1"/>
    <polygon class="st7" points="20 34.5 21 34.5 22 34.5 22 35.5 21 35.5 21 36.5 20 36.5 19 36.5 19 35.5 20 35.5 20 34.5"/>
    <polygon class="st7" points="31 35.5 31 34.5 32 34.5 33 34.5 33 35.5 32 35.5 31 35.5"/>
    <polygon class="st7" points="36 35.5 36 34.5 37 34.5 38 34.5 38 35.5 37 35.5 36 35.5"/>
    <rect x="6" y="35.5" width="1" height="1"/>
    <rect x="10" y="35.5" width="1" height="1"/>
    <rect x="12" y="35.5" width="2" height="1"/>
    <rect x="22" y="35.5" width="1" height="1"/>
    <polygon class="st7" points="29 36.5 29 35.5 30 35.5 31 35.5 31 36.5 30 36.5 29 36.5"/>
    <polygon class="st7" points="34 36.5 34 35.5 35 35.5 36 35.5 36 36.5 35 36.5 34 36.5"/>
    <polygon class="st7" points="4 36.5 6 36.5 6 37.5 5 37.5 4 37.5 4 36.5"/>
    <rect x="7" y="36.5" width="1" height="1"/>
    <rect x="11" y="36.5" width="1" height="1"/>
    <rect x="14" y="36.5" width="1" height="1"/>
    <polygon class="st7" points="17 37.5 17 36.5 19 36.5 19 37.5 18 37.5 17 37.5"/>
    <rect x="23" y="36.5" width="1" height="1"/>
    <polygon class="st7" points="27 37.5 27 36.5 28 36.5 29 36.5 29 37.5 28 37.5 27 37.5"/>
    <polygon class="st7" points="32 37.5 32 36.5 33 36.5 34 36.5 34 37.5 33 37.5 32 37.5"/>
    <rect x="6" y="37.5" width="1" height="1"/>
    <polygon class="st7" points="8 38.5 8 37.5 9 37.5 10 37.5 10 38.5 8 38.5"/>
    <polygon class="st7" points="12 37.5 14 37.5 14 38.5 13 38.5 12 38.5 12 37.5"/>
    <polygon class="st7" points="15 38.5 15 37.5 17 37.5 17 38.5 16 38.5 15 38.5"/>
    <polygon class="st7" points="24 37.5 27 37.5 27 38.5 26 38.5 25 38.5 24 38.5 24 37.5"/>
    <polygon class="st7" points="30 38.5 30 37.5 31 37.5 32 37.5 32 38.5 31 38.5 30 38.5"/>
    <rect x="7" y="38.5" width="1" height="1"/>
    <rect x="10" y="38.5" width="1" height="1"/>
    <rect x="14" y="38.5" width="1" height="1"/>
    <polygon class="st7" points="28 39.5 28 38.5 29 38.5 30 38.5 30 39.5 29 39.5 28 39.5"/>
    <polygon class="st7" points="8 39.5 10 39.5 10 40.5 9 40.5 8 40.5 8 39.5"/>
    <rect x="11" y="39.5" width="1" height="1"/>
    <rect x="15" y="39.5" width="1" height="1"/>
    <polygon class="st7" points="26 40.5 26 39.5 27 39.5 28 39.5 28 40.5 27 40.5 26 40.5"/>
    <rect x="10" y="40.5" width="1" height="1"/>
    <polygon class="st7" points="12 41.5 12 40.5 13 40.5 14 40.5 14 41.5 12 41.5"/>
    <polygon class="st7" points="16 40.5 17 40.5 17 41.5 17 42.5 17 43.5 16 43.5 15 43.5 15 42.5 16 42.5 16 41.5 16 40.5"/>
    <polygon class="st7" points="24 41.5 24 40.5 25 40.5 26 40.5 26 41.5 25 41.5 24 41.5"/>
    <rect x="11" y="41.5" width="1" height="1"/>
    <rect x="14" y="41.5" width="1" height="1"/>
    <polygon class="st7" points="22 42.5 22 41.5 23 41.5 24 41.5 24 42.5 23 42.5 22 42.5"/>
    <polygon class="st7" points="12 42.5 14 42.5 14 43.5 13 43.5 12 43.5 12 42.5"/>
    <polygon class="st7" points="20 43.5 20 42.5 21 42.5 22 42.5 22 43.5 21 43.5 20 43.5"/>
    <rect x="14" y="43.5" width="1" height="1"/>
    <polygon class="st7" points="18 44.5 18 43.5 19 43.5 20 43.5 20 44.5 19 44.5 18 44.5"/>
    <rect x="15" y="44.5" width="3" height="1"/>
    <polygon class="st3" points="3 17.5 5 17.5 5 18.5 5 19.5 6 19.5 6 20.5 7 20.5 7 21.5 8 21.5 8 22.5 8 23.5 9 23.5 9 24.5 10 24.5 10 25.5 9 25.5 8 25.5 8 24.5 7 24.5 7 23.5 6 23.5 6 22.5 5 22.5 4 22.5 4 21.5 3 21.5 3 20.5 2 20.5 2 19.5 1 19.5 1 18.5 2 18.5 3 18.5 3 17.5"/>
    <rect class="st10" x="10" y="25.5" width="1" height="1"/>
    <polygon class="st3" points="47 26.5 47 27.5 46 27.5 45 27.5 45 28.5 44 28.5 43 28.5 43 29.5 42 29.5 41 29.5 41 30.5 40 30.5 39 30.5 39 31.5 38 31.5 37 31.5 37 32.5 36 32.5 35 32.5 35 33.5 34 33.5 33 33.5 33 34.5 32 34.5 31 34.5 31 35.5 30 35.5 29 35.5 29 36.5 28 36.5 27 36.5 27 37.5 24 37.5 24 36.5 23 36.5 23 35.5 22 35.5 22 34.5 21 34.5 20 34.5 20 33.5 19 33.5 19 32.5 18 32.5 18 31.5 17 31.5 16 31.5 16 30.5 15 30.5 15 29.5 14 29.5 14 28.5 15 28.5 16 28.5 16 29.5 17 29.5 18 29.5 19 29.5 19 30.5 20 30.5 21 30.5 21 31.5 22 31.5 23 31.5 24 31.5 24 32.5 25 32.5 26 32.5 26 33.5 27 33.5 27 32.5 28 32.5 29 32.5 29 31.5 30 31.5 31 31.5 31 30.5 32 30.5 33 30.5 33 29.5 34 29.5 35 29.5 35 28.5 36 28.5 37 28.5 37 27.5 38 27.5 39 27.5 39 26.5 40 26.5 41 26.5 41 25.5 42 25.5 43 25.5 45 25.5 45 26.5 46 26.5 47 26.5"/>
    <rect class="st10" x="11" y="26.5" width="1" height="1"/>
    <polygon class="st3" points="12 27.5 13 27.5 14 27.5 14 28.5 13 28.5 12 28.5 12 27.5"/>
    <rect class="st8" x="3" y="22.5" width="1" height="1"/>
    <polygon class="st2" points="4 23.5 5 23.5 6 23.5 6 24.5 5 24.5 4 24.5 4 23.5"/>
    <rect class="st8" x="6" y="24.5" width="1" height="1"/>
    <rect class="st8" x="7" y="25.5" width="1" height="1"/>
    <polygon class="st2" points="8 26.5 9 26.5 10 26.5 10 27.5 9 27.5 8 27.5 8 26.5"/>
    <rect class="st8" x="3" y="27.5" width="1" height="1"/>
    <rect class="st8" x="10" y="27.5" width="1" height="1"/>
    <polygon class="st2" points="4 28.5 5 28.5 6 28.5 6 29.5 5 29.5 4 29.5 4 28.5"/>
    <rect class="st8" x="11" y="28.5" width="1" height="1"/>
    <rect class="st8" x="6" y="29.5" width="1" height="1"/>
    <polygon class="st2" points="12 29.5 13 29.5 14 29.5 14 30.5 13 30.5 12 30.5 12 29.5"/>
    <rect class="st8" x="7" y="30.5" width="1" height="1"/>
    <rect class="st8" x="14" y="30.5" width="1" height="1"/>
    <polygon class="st2" points="8 31.5 9 31.5 10 31.5 10 32.5 9 32.5 8 32.5 8 31.5"/>
    <rect class="st8" x="15" y="31.5" width="1" height="1"/>
    <rect class="st8" x="10" y="32.5" width="1" height="1"/>
    <polygon class="st2" points="16 32.5 17 32.5 18 32.5 18 33.5 19 33.5 19 34.5 20 34.5 20 35.5 19 35.5 19 36.5 18 36.5 17 36.5 17 35.5 17 34.5 17 33.5 16 33.5 16 32.5"/>
    <rect class="st8" x="11" y="33.5" width="1" height="1"/>
    <polygon class="st2" points="12 34.5 13 34.5 14 34.5 14 35.5 13 35.5 12 35.5 12 34.5"/>
    <rect class="st8" x="14" y="35.5" width="1" height="1"/>
    <rect class="st8" x="15" y="36.5" width="2" height="1"/>
    <rect class="st11" x="26" y="3.5" width="3" height="1"/>
    <polygon class="st5" points="23 5.5 23 4.5 24 4.5 25 4.5 26 4.5 26 5.5 23 5.5"/>
    <polygon class="st5" points="29 4.5 30 4.5 31 4.5 31 5.5 31 6.5 30 6.5 29 6.5 29 7.5 28 7.5 27 7.5 27 8.5 26 8.5 25 8.5 24 8.5 24 9.5 23 9.5 22 9.5 22 10.5 21 10.5 20 10.5 20 11.5 19 11.5 18 11.5 17 11.5 17 12.5 16 12.5 16 13.5 15 13.5 15 14.5 15 15.5 14 15.5 14 16.5 14 17.5 14 18.5 14 19.5 13 19.5 13 15.5 13 13.5 13 10.5 14 10.5 15 10.5 15 9.5 16 9.5 17 9.5 18 9.5 18 8.5 19 8.5 20 8.5 21 8.5 21 7.5 22 7.5 23 7.5 23 6.5 24 6.5 25 6.5 26 6.5 26 5.5 29 5.5 29 4.5"/>
    <polygon class="st5" points="21 6.5 21 5.5 22 5.5 23 5.5 23 6.5 21 6.5"/>
    <polygon class="st5" points="18 7.5 18 6.5 19 6.5 20 6.5 21 6.5 21 7.5 18 7.5"/>
    <polygon class="st5" points="15 8.5 15 7.5 16 7.5 17 7.5 18 7.5 18 8.5 15 8.5"/>
    <polygon class="st5" points="14 23.5 14 22.5 14 21.5 15 21.5 15 20.5 15 19.5 16 19.5 16 18.5 16 17.5 16 16.5 17 16.5 17 15.5 17 14.5 18 14.5 18 13.5 19 13.5 20 13.5 20 12.5 21 12.5 22 12.5 22 11.5 23 11.5 24 11.5 24 10.5 25 10.5 26 10.5 27 10.5 27 9.5 28 9.5 29 9.5 29 8.5 30 8.5 31 8.5 32 8.5 33 8.5 33 7.5 35 7.5 35 9.5 35 12.5 34 12.5 33 12.5 33 13.5 32 13.5 31 13.5 30 13.5 29 13.5 29 14.5 28 14.5 27 14.5 26 14.5 26 15.5 25 15.5 24 15.5 24 16.5 23 16.5 22 16.5 22 17.5 21 17.5 20 17.5 20 18.5 19 18.5 19 19.5 18 19.5 18 20.5 17 20.5 17 21.5 16 21.5 16 22.5 15 22.5 15 23.5 14 23.5"/>
    <polygon class="st5" points="15 8.5 15 9.5 14 9.5 13 9.5 13 10.5 12 10.5 12 11.5 12 12.5 11 12.5 11 13.5 11 16.5 10 16.5 10 12.5 10 9.5 11 9.5 12 9.5 12 8.5 13 8.5 15 8.5"/>
    <polygon class="st5" points="7 13.5 7 10.5 9 10.5 9 11.5 9 12.5 8 12.5 8 13.5 7 13.5"/>
    <polygon class="st5" points="7 13.5 7 14.5 6 14.5 6 15.5 6 16.5 7 16.5 7 17.5 7 18.5 8 18.5 8 19.5 8 20.5 7 20.5 7 19.5 6 19.5 6 18.5 6 17.5 5 17.5 5 16.5 5 15.5 4 15.5 4 14.5 3 14.5 3 13.5 4 13.5 5 13.5 5 12.5 6 12.5 6 13.5 7 13.5"/>
    <rect class="st11" x="40" y="12.5" width="1" height="1"/>
    <polygon class="st5" points="38 14.5 38 13.5 39 13.5 40 13.5 40 14.5 39 14.5 38 14.5"/>
    <polygon class="st5" points="38 14.5 38 15.5 37 15.5 36 15.5 36 16.5 35 16.5 34 16.5 33 16.5 33 15.5 34 15.5 35 15.5 35 14.5 36 14.5 37 14.5 38 14.5"/>
    <rect class="st11" x="8" y="15.5" width="1" height="1"/>
    <rect class="st11" x="9" y="16.5" width="1" height="1"/>
    <polygon class="st5" points="33 16.5 33 17.5 32 17.5 31 17.5 31 18.5 30 18.5 29 18.5 29 19.5 28 19.5 27 19.5 27 20.5 26 20.5 25 20.5 25 21.5 23 21.5 23 20.5 24 20.5 24 19.5 25 19.5 26 19.5 26 18.5 27 18.5 28 18.5 28 17.5 29 17.5 30 17.5 30 16.5 33 16.5"/>
    <polygon class="st5" points="40 17.5 40 16.5 41 16.5 42 16.5 43 16.5 43 17.5 40 17.5"/>
    <polygon class="st5" points="38 18.5 38 17.5 39 17.5 40 17.5 40 18.5 39 18.5 38 18.5"/>
    <polygon class="st5" points="38 18.5 38 19.5 37 19.5 36 19.5 36 20.5 34 20.5 34 19.5 35 19.5 35 18.5 36 18.5 37 18.5 38 18.5"/>
    <rect class="st11" x="8" y="20.5" width="1" height="1"/>
    <polygon class="st5" points="32 21.5 32 20.5 33 20.5 34 20.5 34 21.5 33 21.5 32 21.5"/>
    <rect class="st11" x="12" y="21.5" width="1" height="1"/>
    <polygon class="st5" points="21 22.5 21 21.5 22 21.5 23 21.5 23 22.5 22 22.5 21 22.5"/>
    <polygon class="st5" points="32 21.5 32 22.5 31 22.5 30 22.5 30 23.5 29 23.5 28 23.5 27 23.5 27 22.5 28 22.5 29 22.5 29 21.5 30 21.5 31 21.5 32 21.5"/>
    <polygon class="st5" points="45 22.5 45 23.5 44 23.5 43 23.5 43 24.5 42 24.5 41 24.5 41 25.5 40 25.5 39 25.5 39 26.5 38 26.5 37 26.5 37 27.5 36 27.5 35 27.5 35 28.5 34 28.5 33 28.5 33 29.5 32 29.5 31 29.5 31 30.5 30 30.5 29 30.5 29 31.5 28 31.5 27 31.5 27 32.5 26 32.5 26 31.5 25 31.5 24 31.5 24 30.5 23 30.5 22 30.5 21 30.5 21 29.5 20 29.5 19 29.5 19 28.5 21 28.5 22 28.5 22 27.5 23 27.5 24 27.5 25 27.5 26 27.5 27 27.5 27 26.5 28 26.5 29 26.5 30 26.5 30 25.5 31 25.5 32 25.5 32 24.5 33 24.5 34 24.5 34 23.5 35 23.5 36 23.5 36 22.5 37 22.5 38 22.5 38 21.5 39 21.5 40 21.5 41 21.5 42 21.5 42 22.5 43 22.5 45 22.5"/>
    <polygon class="st5" points="19 23.5 19 22.5 20 22.5 21 22.5 21 23.5 20 23.5 19 23.5"/>
    <rect class="st11" x="13" y="23.5" width="1" height="1"/>
    <rect class="st11" x="18" y="23.5" width="1" height="1"/>
    <polygon class="st5" points="27 23.5 27 24.5 26 24.5 25 24.5 25 23.5 27 23.5"/>
    <rect class="st11" x="3" y="24.5" width="1" height="1"/>
    <polygon class="st5" points="20 24.5 21 24.5 22 24.5 22 25.5 21 25.5 20 25.5 20 24.5"/>
    <polygon class="st5" points="4 25.5 5 25.5 6 25.5 6 26.5 5 26.5 4 26.5 4 25.5"/>
    <rect class="st11" x="6" y="26.5" width="1" height="1"/>
    <rect class="st11" x="7" y="27.5" width="1" height="1"/>
    <polygon class="st5" points="8 28.5 9 28.5 10 28.5 10 29.5 9 29.5 8 29.5 8 28.5"/>
    <rect class="st11" x="10" y="29.5" width="1" height="1"/>
    <rect class="st11" x="11" y="30.5" width="1" height="1"/>
    <polygon class="st5" points="12 31.5 13 31.5 14 31.5 14 32.5 13 32.5 12 32.5 12 31.5"/>
    <polygon class="st5" points="6 33.5 5 33.5 4 33.5 4 32.5 6 32.5 6 33.5"/>
    <rect class="st11" x="14" y="32.5" width="1" height="1"/>
    <rect class="st11" x="6" y="33.5" width="1" height="1"/>
    <rect class="st11" x="15" y="33.5" width="1" height="1"/>
    <rect class="st11" x="7" y="34.5" width="1" height="1"/>
    <polygon class="st5" points="8 35.5 9 35.5 10 35.5 10 36.5 9 36.5 8 36.5 8 35.5"/>
    <rect class="st11" x="10" y="36.5" width="1" height="1"/>
    <rect class="st11" x="11" y="37.5" width="1" height="1"/>
    <polygon class="st5" points="12 38.5 13 38.5 14 38.5 14 39.5 13 39.5 12 39.5 12 38.5"/>
    <rect class="st11" x="14" y="39.5" width="1" height="1"/>
    <rect class="st11" x="15" y="40.5" width="1" height="1"/>
    <polygon class="st0" points="29 7.5 29 6.5 31 6.5 31 7.5 30 7.5 29 7.5"/>
    <polygon class="st0" points="27 8.5 27 7.5 28 7.5 29 7.5 29 8.5 28 8.5 27 8.5"/>
    <polygon class="st0" points="24 9.5 24 8.5 25 8.5 26 8.5 27 8.5 27 9.5 26 9.5 25 9.5 24 9.5"/>
    <polygon class="st0" points="22 10.5 22 9.5 23 9.5 24 9.5 24 10.5 23 10.5 22 10.5"/>
    <polygon class="st0" points="20 11.5 20 10.5 21 10.5 22 10.5 22 11.5 21 11.5 20 11.5"/>
    <polygon class="st0" points="17 12.5 17 11.5 18 11.5 19 11.5 20 11.5 20 12.5 19 12.5 18 12.5 17 12.5"/>
    <polygon class="st0" points="8 12.5 9 12.5 9 13.5 9 14.5 9 15.5 8 15.5 8 13.5 8 12.5"/>
    <polygon class="st0" points="12 12.5 12 16.5 12 17.5 12 18.5 12 19.5 12 20.5 12 21.5 11 21.5 11 17.5 11 16.5 11 15.5 11 14.5 11 13.5 11 12.5 12 12.5"/>
    <polygon class="st0" points="17 12.5 17 13.5 17 14.5 16 14.5 16 15.5 16 16.5 15 16.5 15 17.5 15 18.5 15 19.5 14 19.5 14 16.5 14 15.5 15 15.5 15 14.5 15 13.5 16 13.5 16 12.5 17 12.5"/>
    <polygon class="st0" points="17 23.5 16 23.5 16 24.5 14 24.5 14 23.5 15 23.5 15 22.5 16 22.5 16 21.5 17 21.5 17 20.5 18 20.5 18 19.5 19 19.5 19 18.5 20 18.5 20 17.5 21 17.5 22 17.5 22 16.5 23 16.5 24 16.5 24 15.5 25 15.5 26 15.5 26 14.5 27 14.5 28 14.5 29 14.5 29 13.5 30 13.5 31 13.5 32 13.5 33 13.5 33 12.5 34 12.5 35 12.5 35 13.5 35 14.5 34 14.5 33 14.5 33 15.5 32 15.5 31 15.5 30 15.5 30 16.5 29 16.5 28 16.5 28 17.5 27 17.5 26 17.5 26 18.5 25 18.5 24 18.5 24 19.5 23 19.5 23 20.5 22 20.5 21 20.5 21 21.5 20 21.5 19 21.5 19 22.5 18 22.5 17 22.5 17 23.5"/>
    <polygon class="st0" points="7 16.5 6 16.5 6 15.5 6 14.5 7 14.5 7 16.5"/>
    <rect class="st1" x="38" y="14.5" width="1" height="1"/>
    <polygon class="st0" points="36 16.5 36 15.5 37 15.5 38 15.5 38 16.5 36 16.5"/>
    <polygon class="st0" points="7 16.5 8 16.5 8 17.5 8 18.5 7 18.5 7 17.5 7 16.5"/>
    <polygon class="st0" points="36 16.5 36 17.5 35 17.5 34 17.5 34 18.5 33 18.5 32 18.5 32 19.5 31 19.5 30 19.5 30 20.5 27 20.5 27 19.5 28 19.5 29 19.5 29 18.5 30 18.5 31 18.5 31 17.5 32 17.5 33 17.5 33 16.5 34 16.5 35 16.5 36 16.5"/>
    <rect class="st1" x="38" y="16.5" width="2" height="1"/>
    <rect class="st1" x="9" y="17.5" width="1" height="1"/>
    <polygon class="st0" points="36 17.5 38 17.5 38 18.5 37 18.5 36 18.5 36 17.5"/>
    <polygon class="st0" points="8 18.5 9 18.5 9 20.5 8 20.5 8 19.5 8 18.5"/>
    <rect class="st1" x="34" y="18.5" width="1" height="1"/>
    <polygon class="st0" points="14 19.5 14 20.5 14 21.5 13 21.5 13 20.5 13 19.5 14 19.5"/>
    <polygon class="st0" points="32 20.5 32 19.5 34 19.5 34 20.5 33 20.5 32 20.5"/>
    <polygon class="st0" points="25 21.5 25 20.5 26 20.5 27 20.5 27 21.5 25 21.5"/>
    <polygon class="st0" points="30 20.5 32 20.5 32 21.5 31 21.5 30 21.5 30 20.5"/>
    <polygon class="st0" points="18 26.5 21 26.5 22 26.5 22 25.5 23 25.5 24 25.5 25 25.5 26 25.5 27 25.5 27 24.5 28 24.5 29 24.5 30 24.5 30 23.5 31 23.5 32 23.5 32 22.5 33 22.5 34 22.5 34 21.5 35 21.5 36 21.5 36 20.5 38 20.5 38 22.5 37 22.5 36 22.5 36 23.5 35 23.5 34 23.5 34 24.5 33 24.5 32 24.5 32 25.5 31 25.5 30 25.5 30 26.5 29 26.5 28 26.5 27 26.5 27 27.5 24 27.5 23 27.5 22 27.5 22 28.5 21 28.5 20 28.5 19 28.5 18 28.5 17 28.5 16 28.5 16 27.5 17 27.5 18 27.5 18 26.5"/>
    <polygon class="st0" points="9 21.5 10 21.5 10 22.5 10 23.5 9 23.5 9 22.5 9 21.5"/>
    <polygon class="st0" points="25 21.5 25 22.5 24 22.5 23 22.5 23 21.5 24 21.5 25 21.5"/>
    <polygon class="st0" points="27 22.5 27 21.5 28 21.5 29 21.5 29 22.5 28 22.5 27 22.5"/>
    <rect class="st1" x="12" y="22.5" width="1" height="1"/>
    <rect class="st1" x="21" y="22.5" width="1" height="1"/>
    <polygon class="st0" points="25 23.5 25 22.5 27 22.5 27 23.5 26 23.5 25 23.5"/>
    <rect class="st1" x="11" y="23.5" width="1" height="1"/>
    <rect class="st1" x="17" y="23.5" width="1" height="1"/>
    <polygon class="st0" points="22 23.5 25 23.5 25 24.5 24 24.5 22 24.5 22 23.5"/>
    <rect class="st1" x="13" y="24.5" width="1" height="1"/>
    <rect class="st1" x="16" y="24.5" width="1" height="1"/>
    <rect class="st1" x="19" y="24.5" width="1" height="1"/>
    <rect class="st1" x="12" y="25.5" width="1" height="1"/>
    <rect class="st1" x="14" y="25.5" width="1" height="1"/>
    <rect class="st1" x="17" y="25.5" width="1" height="1"/>
    <polygon class="st0" points="4 27.5 4 26.5 5 26.5 6 26.5 6 27.5 4 27.5"/>
    <rect class="st1" x="6" y="27.5" width="1" height="1"/>
    <rect class="st1" x="7" y="28.5" width="1" height="1"/>
    <polygon class="st0" points="8 29.5 9 29.5 10 29.5 10 30.5 9 30.5 8 30.5 8 29.5"/>
    <rect class="st1" x="10" y="30.5" width="1" height="1"/>
    <rect class="st1" x="11" y="31.5" width="1" height="1"/>
    <polygon class="st0" points="12 32.5 13 32.5 14 32.5 14 33.5 13 33.5 12 33.5 12 32.5"/>
    <polygon class="st0" points="4 34.5 4 33.5 5 33.5 6 33.5 6 34.5 5 34.5 4 34.5"/>
    <rect class="st1" x="14" y="33.5" width="1" height="1"/>
    <rect class="st1" x="6" y="34.5" width="1" height="1"/>
    <rect class="st1" x="15" y="34.5" width="1" height="1"/>
    <rect class="st1" x="7" y="35.5" width="1" height="1"/>
    <polygon class="st0" points="8 36.5 9 36.5 10 36.5 10 37.5 9 37.5 8 37.5 8 36.5"/>
    <rect class="st1" x="10" y="37.5" width="1" height="1"/>
    <rect class="st1" x="11" y="38.5" width="1" height="1"/>
    <polygon class="st0" points="12 39.5 13 39.5 14 39.5 14 40.5 13 40.5 12 40.5 12 39.5"/>
    <rect class="st1" x="14" y="40.5" width="1" height="1"/>
    <rect class="st1" x="15" y="41.5" width="1" height="1"/>
    <polygon class="st4" points="18 38.5 18 37.5 19 37.5 20 37.5 20 38.5 21 38.5 21 42.5 20 42.5 20 43.5 19 43.5 19 40.5 19 39.5 19 38.5 18 38.5"/>
    <rect class="st12" x="3" y="29.5" width="1" height="1"/>
    <polygon class="st6" points="4 30.5 5 30.5 6 30.5 6 31.5 5 31.5 4 31.5 4 30.5"/>
    <rect class="st12" x="6" y="31.5" width="1" height="1"/>
    <rect class="st12" x="7" y="32.5" width="1" height="1"/>
    <polygon class="st6" points="39 32.5 39 33.5 38 33.5 38 34.5 37 34.5 36 34.5 36 35.5 35 35.5 34 35.5 34 36.5 33 36.5 32 36.5 32 37.5 31 37.5 30 37.5 30 38.5 29 38.5 28 38.5 28 39.5 27 39.5 26 39.5 26 40.5 25 40.5 24 40.5 24 41.5 23 41.5 22 41.5 22 42.5 21 42.5 21 40.5 21 39.5 21 38.5 20 38.5 20 37.5 19 37.5 19 36.5 20 36.5 21 36.5 21 35.5 22 35.5 22 36.5 23 36.5 23 37.5 24 37.5 24 38.5 27 38.5 27 37.5 28 37.5 29 37.5 29 36.5 30 36.5 31 36.5 31 35.5 32 35.5 33 35.5 33 34.5 34 34.5 35 34.5 35 33.5 36 33.5 37 33.5 37 32.5 38 32.5 39 32.5"/>
    <polygon class="st6" points="8 33.5 9 33.5 10 33.5 10 34.5 9 34.5 8 34.5 8 33.5"/>
    <rect class="st12" x="3" y="34.5" width="1" height="1"/>
    <rect class="st12" x="10" y="34.5" width="1" height="1"/>
    <polygon class="st6" points="4 35.5 5 35.5 6 35.5 6 36.5 5 36.5 4 36.5 4 35.5"/>
    <rect class="st12" x="11" y="35.5" width="1" height="1"/>
    <rect class="st12" x="6" y="36.5" width="1" height="1"/>
    <polygon class="st6" points="12 36.5 13 36.5 14 36.5 14 37.5 13 37.5 12 37.5 12 36.5"/>
    <rect class="st12" x="7" y="37.5" width="1" height="1"/>
    <rect class="st12" x="14" y="37.5" width="1" height="1"/>
    <polygon class="st6" points="18 44.5 15 44.5 15 43.5 16 43.5 17 43.5 17 42.5 17 40.5 16 40.5 16 39.5 15 39.5 15 38.5 16 38.5 17 38.5 17 37.5 18 37.5 18 38.5 19 38.5 19 39.5 19 40.5 19 41.5 19 42.5 19 43.5 18 43.5 18 44.5"/>
    <polygon class="st6" points="8 38.5 9 38.5 10 38.5 10 39.5 9 39.5 8 39.5 8 38.5"/>
    <rect class="st12" x="10" y="39.5" width="1" height="1"/>
    <rect class="st12" x="11" y="40.5" width="1" height="1"/>
    <polygon class="st6" points="12 41.5 13 41.5 14 41.5 14 42.5 13 42.5 12 42.5 12 41.5"/>
    <rect class="st12" x="14" y="42.5" width="1" height="1"/>
  </g>
</svg>